# xmcd
#
# Track frame offsets:
#	150
#	10580
#	24539
#	36323
#	49256
#	67623
#	85715
#	97545
#	109808
#	124976
#	134723
#	153756
#	167204
#	184062
#	192727
#	205718
#	219581
#	230398
#	239961
#
# Disc length: 3327 seconds
#
# Revision: 1
# Processed by: cddbd v1.4PL0 Copyright (c) Steve Scherf et al.
# Submitted via: audiograbber 1.82.02
#
DISCID=040cfd13
DTITLE=Various Artist - Country Music Awards 1973-1982
DYEAR=1900
DGENRE=Country
TTITLE0=Slim Newton - Redback On The Toilet Seat
TTITLE1=Slim Dusty - The Lights On The Hill
TTITLE2=Tex Morton - The Goondiwindi Grey
TTITLE3=Reg Lindsay - July You're A Woman
TTITLE4=Jean Stafford - What Kind Of A Girl Do You Think I Am
TTITLE5=Rex Dallas - Old Wallerawang
TTITLE6=Webb Brothers - The Palmer River Song
TTITLE7=Heather McKean - I Can Feel Love
TTITLE8=Slim Dusty - Three Rivers Hotel
TTITLE9=Saltbush - Sassafrass Gap
TTITLE10=Reg Lindsay - Silence On The Line
TTITLE11=Hawking Brothers - Silver Wings
TTITLE12=Anne Kirkpatrick - Grievous Angel
TTITLE13=Trev and Dennis - Fiddle In The Gorge
TTITLE14=1901 - The Road To Gundagai
TTITLE15=Grand Junction - Married Women
TTITLE16=Bushwackers - The Flying Pieman
TTITLE17=Barry Thornton - Brian's Tune
TTITLE18=Jewel Blanch - I Can Love You
EXTD=
EXTT0=
EXTT1=
EXTT2=
EXTT3=
EXTT4=
EXTT5=
EXTT6=
EXTT7=
EXTT8=
EXTT9=
EXTT10=
EXTT11=
EXTT12=
EXTT13=
EXTT14=
EXTT15=
EXTT16=
EXTT17=
EXTT18=
PLAYORDER=
